<svg width="1173" height="1173" viewBox="0 0 1173 1173" fill="none" xmlns="http://www.w3.org/2000/svg">
<path d="M0 187.981C0 84.1618 84.1619 0 187.981 0H985.019C1088.84 0 1173 84.1619 1173 187.981V985.019C1173 1088.84 1088.84 1173 985.019 1173H187.981C84.1618 1173 0 1088.84 0 985.019V187.981Z" fill="#FF3100"/>
<path d="M981.446 346.317H886.081L842.527 431.993L738.666 637.157L634.806 431.993L591.251 346.317H495.886L539.202 431.993L738.666 825.535L938.131 431.993L981.446 346.317Z" fill="white"/>
<path d="M686.662 825.532H591.297L547.743 739.857L443.882 534.692L340.022 739.857L296.467 825.532H201.102L244.417 739.857L443.882 346.314L643.347 739.857L686.662 825.532Z" fill="white"/>
</svg>
