<svg width="262" height="261" viewBox="0 0 262 261" fill="none" xmlns="http://www.w3.org/2000/svg">
<mask id="path-1-outside-1_53_9" maskUnits="userSpaceOnUse" x="0" y="0" width="262" height="261" fill="black">
<rect fill="white" width="262" height="261"/>
<path d="M24.854 76.4139C24.854 57.6719 40.0474 42.4785 58.7895 42.4785H202.676C221.418 42.4785 236.611 57.6719 236.611 76.4139V220.3C236.611 239.043 221.418 254.236 202.676 254.236H58.7895C40.0474 254.236 24.854 239.043 24.854 220.3V76.4139Z"/>
<path d="M44.0721 112.12C44.177 112.12 44.9083 112.565 45.6919 113.116C46.5019 113.666 50.2644 116.418 54.0531 119.196C57.8679 122 64.0083 126.56 67.7186 129.338C71.4287 132.142 74.6684 134.658 74.9561 134.947C75.3219 135.288 75.4265 135.628 75.322 136.048C75.217 136.363 71.8466 141.604 67.7969 147.658C64.1869 153.089 61.1447 157.677 60.5194 158.62L60.4026 158.796C60.3764 158.849 61.9703 158.456 63.9299 157.905C65.9158 157.355 70.3314 156.097 73.7803 155.075C77.2292 154.053 82.246 152.533 84.885 151.642C87.5501 150.777 91.0775 149.571 92.7236 148.942C94.3958 148.339 96.5645 147.474 97.5574 147.029C98.5764 146.557 99.4649 146.295 99.5694 146.4C99.674 146.505 100.458 148.968 101.32 151.851C102.182 154.734 104.325 161.863 106.076 167.707C107.826 173.525 109.368 178.505 109.498 178.767C109.681 179.16 111.275 177.666 118.983 169.935C124.099 164.804 128.224 160.588 128.207 160.552C128.181 160.5 126.377 159.714 124.209 158.796C122.066 157.879 118.304 156.149 115.848 154.97C113.418 153.764 110.308 152.139 108.923 151.327C107.565 150.488 105.866 149.388 103.828 147.867L103.672 144.749C103.567 143.019 103.567 141.526 103.672 141.42C103.776 141.316 104.717 141.604 105.788 142.102C106.885 142.6 108.871 143.36 110.23 143.779C111.615 144.225 113.888 144.827 115.325 145.116C116.762 145.404 119.061 145.771 120.42 145.928C121.805 146.059 125.019 146.269 127.605 146.347C130.192 146.452 134.503 146.4 137.142 146.243C139.808 146.085 143.335 145.718 144.981 145.43C146.653 145.142 149.031 144.618 150.285 144.251C151.54 143.884 153.656 143.098 154.989 142.521C156.321 141.918 157.627 141.368 157.915 141.263C158.385 141.106 158.411 141.211 158.228 144.251C158.072 146.61 157.915 147.501 157.575 147.867C157.34 148.156 155.72 149.309 153.995 150.436C152.271 151.589 148.587 153.686 145.765 155.075C142.969 156.49 139.076 158.325 137.09 159.189C135.105 160.054 133.511 160.814 133.537 160.893C133.563 160.946 137.744 165.14 152.036 179.37L152.402 178.452C152.611 177.928 154.309 172.346 156.19 166.004C158.072 159.635 160.136 152.69 160.815 150.541C161.468 148.366 162.069 146.505 162.122 146.4C162.2 146.295 163.089 146.609 164.134 147.081C165.179 147.579 167.504 148.497 169.281 149.152C171.084 149.807 175.212 151.17 178.426 152.192C181.666 153.214 186.369 154.629 188.877 155.337C191.412 156.071 195.201 157.145 197.317 157.722C199.432 158.298 201.234 158.796 201.289 158.796C201.367 158.796 198.127 153.791 194.077 147.71C190.027 141.63 186.63 136.415 186.526 136.126C186.343 135.707 186.5 135.392 187.153 134.763C187.597 134.318 191.438 131.356 195.671 128.185C199.93 125.04 206.514 120.166 210.303 117.387C214.117 114.584 217.409 112.277 217.619 112.224C217.88 112.146 218.377 112.644 218.952 113.509C219.475 114.269 224.413 121.607 229.926 129.836L231.141 131.645C236.395 139.462 242.381 148.37 244.95 152.113C247.693 156.149 250.489 160.395 251.142 161.548C251.796 162.701 252.736 164.693 253.259 166.004C253.781 167.288 254.513 169.647 254.905 171.245C255.532 173.735 255.61 174.626 255.61 177.928C255.61 180.89 255.48 182.148 255.062 183.694C254.774 184.769 254.095 186.603 253.572 187.756C253.05 188.91 252.109 190.613 251.482 191.557C250.855 192.474 249.418 194.177 248.294 195.304C247.171 196.431 245.237 198.03 244.009 198.842C242.807 199.655 240.795 200.756 239.567 201.306C238.365 201.83 236.17 202.59 234.733 202.983C232.669 203.534 231.337 203.691 228.201 203.796C224.935 203.901 223.158 203.77 217.227 203.088C213.36 202.643 207.951 201.961 205.208 201.621C202.49 201.28 199.878 200.991 198.545 200.991L198.414 251.704L197.84 252.543C197.526 253.015 196.768 253.644 196.193 253.932C195.174 254.43 194.7 254.43 65.9156 254.325L64.9488 253.591C64.4263 253.198 63.7993 252.491 63.538 252.019C63.12 251.233 63.0675 249.398 62.9369 200.991L62.1009 201.123C61.6306 201.201 55.9605 201.83 49.4806 202.564C42.1123 203.376 36.5729 203.848 34.5872 203.874C32.7843 203.874 30.5372 203.691 29.2308 203.455C28.0289 203.219 26.1476 202.721 25.0502 202.354C23.9789 201.987 22.1499 201.227 21.0002 200.651C19.8506 200.074 18.2044 199.131 17.3422 198.528C16.4799 197.951 14.9906 196.693 13.9978 195.75C13.0049 194.806 11.6986 193.391 11.0976 192.605C10.4705 191.792 9.5559 190.377 9.03332 189.46C8.51075 188.516 7.77909 186.865 7.41329 185.791C7.02136 184.69 6.55104 182.934 6.36814 181.86C6.15911 180.759 6.00249 178.924 6.00249 177.797C5.97636 176.644 6.15926 174.626 6.39442 173.342C6.60345 172.031 7.23059 169.673 7.75317 168.1C8.27573 166.502 9.29456 164.038 10.0262 162.597C10.7578 161.155 13.2923 157.198 15.6438 153.817C18.0216 150.41 24.8152 140.398 30.7465 131.54C36.6776 122.655 42.0601 114.662 42.7134 113.771C43.3405 112.88 43.9676 112.12 44.0721 112.12ZM161.991 204.634L161.651 205.211C161.442 205.552 160.763 206.652 160.136 207.701C159.509 208.723 159.038 209.64 159.065 209.719C159.092 209.797 164.578 209.876 171.266 209.876C181.535 209.876 183.547 209.823 184.2 209.483C184.618 209.273 185.115 208.854 185.246 208.565C185.376 208.277 185.507 207.674 185.507 207.255C185.507 206.81 185.376 206.233 185.246 205.945C185.115 205.656 184.618 205.237 184.2 205.027C183.547 204.687 181.692 204.634 172.704 204.634H161.991ZM119.453 172.687C119.348 172.688 117.441 174.941 115.22 177.666C112.999 180.418 111.144 182.908 111.092 183.222C111.04 183.538 112.608 189.172 114.567 195.723C116.553 202.275 118.251 207.858 118.382 208.094C118.513 208.356 118.669 208.539 118.722 208.487C118.8 208.461 119.924 202.407 121.23 195.068L123.634 181.702C120.551 174.705 119.558 172.66 119.453 172.687ZM142.447 172.922C142.29 172.923 141.428 174.495 140.513 176.382C139.573 178.295 138.658 180.313 138.449 180.864C138.135 181.755 138.135 182.174 138.527 184.271C138.762 185.607 139.781 191.347 140.827 197.034C141.845 202.72 142.734 207.621 142.812 207.91C142.891 208.225 143.047 208.33 143.178 208.172C143.309 208.041 145.112 202.328 147.202 195.514L151.017 183.144C150.102 181.964 148.247 179.658 146.288 177.273C144.328 174.888 142.603 172.922 142.447 172.922ZM136.672 97.05L141.219 97.2333L141.976 99.0942C142.42 100.143 143.309 101.794 143.988 102.816C144.668 103.838 146.026 105.41 146.993 106.354C147.986 107.297 149.554 108.555 150.494 109.184C151.435 109.787 153.133 110.652 154.283 111.097C155.433 111.569 157.34 112.12 160.632 112.775L160.737 114.609C160.815 115.867 161.076 116.916 161.573 118.017C162.017 118.96 162.853 120.139 163.715 120.978C164.656 121.869 165.884 122.682 169.568 124.438L169.046 125.302C168.785 125.748 168.053 126.822 167.426 127.687C166.799 128.526 165.44 130.02 164.421 131.016C163.376 132.012 161.416 133.532 160.11 134.423C158.777 135.288 156.687 136.493 155.459 137.07C154.231 137.672 152.062 138.511 150.625 138.983C149.188 139.455 146.706 140.11 145.138 140.398C143.57 140.713 140.905 141.054 139.259 141.211C137.613 141.342 133.772 141.473 130.767 141.473C127.762 141.473 123.686 141.289 121.753 141.08C119.819 140.896 117.285 140.529 116.135 140.293C114.985 140.058 112.634 139.402 110.909 138.826C109.185 138.249 106.781 137.253 105.553 136.598C104.325 135.943 102.522 134.842 101.503 134.187C100.484 133.505 98.5505 131.828 97.1918 130.465C95.807 129.103 94.1608 127.189 93.5338 126.193C92.8805 125.224 92.4102 124.411 92.4886 124.359C92.5676 124.332 93.5603 123.835 94.7095 123.258C96.0682 122.603 97.2963 121.712 98.2369 120.768C99.0469 119.982 99.9873 118.75 100.301 118.017C100.719 117.125 100.98 116.051 101.163 112.775L103.436 112.355C104.664 112.12 106.494 111.596 107.513 111.202C108.532 110.783 110.152 109.971 111.118 109.394C112.111 108.791 113.731 107.56 114.75 106.616C115.769 105.673 117.206 103.969 117.99 102.816C118.748 101.663 119.689 99.9328 120.838 97.2072L125.15 97.05L127.893 94.2982H133.903L136.672 97.05ZM98.6289 62.3503C99.883 62.3503 100.798 62.4813 101.503 62.822C102.078 63.0579 102.862 63.6608 103.28 64.1063C103.75 64.6829 103.985 65.2333 103.985 65.8623C103.985 66.3603 103.802 67.2253 103.175 68.7452L101.425 68.5353C100.353 68.4043 98.8118 68.4307 97.4531 68.6142C96.225 68.7714 94.1609 69.2693 92.8805 69.6886C91.6003 70.1079 89.5883 71.0252 88.4387 71.7328C87.289 72.4404 85.7735 73.5411 85.0419 74.1701C84.3364 74.8253 83.239 75.9786 82.638 76.7648C82.0371 77.5511 81.1226 78.8878 80.6 79.7526C80.1036 80.6175 79.2935 82.4521 78.8493 83.8149C78.1962 85.8329 78.0395 86.9075 77.9088 89.4497C77.8304 91.389 77.9086 93.2499 78.0915 94.2982C78.2744 95.2417 78.6926 96.8928 79.0323 97.9673C79.3981 99.0419 80.2343 100.876 80.9136 102.03C81.6714 103.314 82.9254 104.939 84.2318 106.249C85.5382 107.559 87.1322 108.817 88.4387 109.577C89.5883 110.259 91.5219 111.124 92.7499 111.517C93.9779 111.884 95.2321 112.46 95.5717 112.749C95.8853 113.063 96.2249 113.666 96.3033 114.085C96.4078 114.505 96.4078 115.186 96.3033 115.605C96.2249 115.998 95.7024 116.785 95.1538 117.387C94.6051 117.99 93.2463 118.934 91.966 119.589C90.738 120.218 88.2557 121.319 86.4267 122.052C84.2319 122.917 82.1939 123.546 80.5217 123.808C79.1369 124.044 77.5691 124.464 77.0726 124.7C76.5762 124.962 75.6878 125.695 75.113 126.324C74.5382 126.98 73.7804 127.871 72.7614 129.181L70.6711 127.556C69.5215 126.665 65.8634 123.992 62.5712 121.581C59.2529 119.17 54.6541 115.894 48.0698 111.333L48.5923 110.495C48.9059 110.023 49.4284 109.08 49.7681 108.398C50.2123 107.559 50.4997 106.38 50.6826 104.86C50.8133 103.576 51.0745 102.03 51.2835 101.374C51.4664 100.719 51.989 99.5135 52.4593 98.7011C52.9296 97.8624 56.2219 92.6208 59.7754 87.0385C63.3289 81.4299 66.8302 75.9261 67.5357 74.7992C68.2673 73.6461 69.4952 71.9949 70.3052 71.1301C71.1152 70.239 72.4739 69.1645 73.31 68.6927C74.329 68.1424 76.0536 67.5658 78.3791 67.0417C80.3126 66.5961 84.5455 65.5478 87.7854 64.683C91.0254 63.8181 94.3699 62.9531 95.2321 62.7434C96.0944 62.56 97.6099 62.3765 98.6289 62.3503ZM163.115 62.3242C164.134 62.3242 167.321 63.0055 173.435 64.5256C178.269 65.7311 183.181 66.9368 184.331 67.1988C185.481 67.4347 187.179 68.0375 188.12 68.5092C189.113 69.0334 190.419 70.003 191.308 70.8941C192.327 71.9424 195.357 76.4505 201.21 85.6495C205.835 92.9353 209.911 99.5135 210.251 100.274C210.591 101.007 210.982 102.501 211.113 103.55C211.27 104.572 211.505 106.039 211.636 106.747C211.792 107.507 212.341 108.765 213.987 111.333L209.362 114.531C206.802 116.287 202.647 119.196 200.139 121.004C197.631 122.786 194.103 125.381 192.3 126.717C189.165 129.076 189.008 129.155 188.642 128.683C188.433 128.421 187.858 127.635 187.414 126.953C186.918 126.298 186.003 125.433 185.324 125.04C184.488 124.542 183.181 124.149 181.326 123.835C179.314 123.494 177.616 122.944 174.925 121.843C172.913 121.004 170.614 120.008 169.83 119.615C169.046 119.248 167.87 118.514 167.243 117.964C166.616 117.414 165.936 116.654 165.753 116.261C165.544 115.841 165.388 115.212 165.388 114.819C165.388 114.4 165.649 113.692 165.963 113.194C166.459 112.46 166.903 112.172 168.393 111.727C169.412 111.412 171.032 110.731 172.051 110.233C173.07 109.709 174.637 108.686 175.578 107.953C176.519 107.192 177.956 105.803 178.792 104.834C179.602 103.864 180.804 102.082 181.431 100.85C182.058 99.6185 182.842 97.8101 183.129 96.7879C183.443 95.7921 183.809 94.0099 183.939 92.8567C184.122 91.4415 184.122 89.9738 183.939 88.2703C183.782 86.9075 183.312 84.7322 182.868 83.4218C182.45 82.1376 181.614 80.2506 181.013 79.2285C180.359 78.0753 179.001 76.4504 177.433 74.9041C175.761 73.2269 174.272 72.0474 172.965 71.3136C171.894 70.7108 170.117 69.9245 169.046 69.5576C167.975 69.2169 166.093 68.7714 164.865 68.6142C163.559 68.4307 161.834 68.3781 158.725 68.6664L158.228 67.5395C157.915 66.7795 157.81 66.0719 157.915 65.4692C157.993 64.9712 158.385 64.2372 158.777 63.8179C159.195 63.4248 159.979 62.927 160.554 62.7173C161.129 62.5077 162.278 62.3504 163.115 62.3242ZM144.041 119.799C143.361 119.537 140.435 119.458 130.846 119.484C123.268 119.484 118.225 119.589 117.833 119.746C117.467 119.903 116.919 120.27 116.579 120.585C116.161 121.004 116.004 121.45 116.004 122.21C116.004 122.786 116.213 123.546 116.448 123.887C116.71 124.254 117.311 124.699 117.755 124.883C118.434 125.145 121.439 125.224 131.185 125.224H143.753C145.53 123.494 145.765 123.048 145.791 122.341C145.791 121.843 145.582 121.135 145.347 120.795C145.086 120.428 144.485 119.982 144.041 119.799ZM99.4127 75.1662C100.719 75.1662 102.47 75.3496 103.332 75.5854C104.194 75.8213 105.71 76.4242 106.729 76.9483C107.878 77.5511 109.263 78.5995 110.413 79.7526C111.824 81.1679 112.503 82.1114 113.313 83.8149C113.914 85.0467 114.515 86.6716 114.672 87.4316C114.829 88.1654 114.959 89.6593 114.959 90.7076C114.959 91.7297 114.776 93.3023 114.567 94.1671C114.358 95.032 113.757 96.5521 113.261 97.5742C112.764 98.5963 111.85 100.012 111.223 100.719C110.596 101.453 109.263 102.58 108.27 103.261C107.277 103.969 105.762 104.755 104.9 105.07C104.038 105.358 102.391 105.751 101.242 105.882C99.5173 106.118 98.7856 106.092 97.0611 105.751C95.9115 105.489 94.1608 104.912 93.1418 104.441C91.9661 103.89 90.6596 102.947 89.4838 101.846C88.4648 100.903 87.2368 99.4349 86.7403 98.5701C86.2439 97.7314 85.5646 96.29 85.2249 95.3465C84.8852 94.403 84.5454 92.6995 84.467 91.5463C84.3625 90.0263 84.441 88.873 84.7806 87.353C85.0419 86.1999 85.6428 84.4963 86.1131 83.5528C86.5834 82.6093 87.6026 81.1416 88.3603 80.3029C89.118 79.4381 90.4506 78.2849 91.3128 77.6821C92.1751 77.1055 93.8212 76.2931 94.9708 75.9C96.6692 75.3234 97.5053 75.1662 99.4127 75.1662ZM161.991 75.1662C163.533 75.1662 165.022 75.3234 165.91 75.5854C166.694 75.8213 168.157 76.4242 169.176 76.9483C170.274 77.5249 171.685 78.5995 172.73 79.6216C173.67 80.5651 174.82 81.9804 175.264 82.7666C175.709 83.5528 176.336 84.9157 176.623 85.7805C176.963 86.7502 177.25 88.3228 177.329 89.8428C177.433 91.7035 177.355 92.7519 177.041 94.0361C176.806 94.9796 176.231 96.4997 175.761 97.4432C175.264 98.4391 174.193 99.9067 173.2 100.981C172.233 102.003 170.718 103.261 169.803 103.812C168.889 104.362 167.426 105.017 166.564 105.279C165.701 105.568 164.186 105.856 163.167 105.961C161.887 106.092 160.737 106.013 159.378 105.725C158.307 105.489 156.53 104.886 155.459 104.362C153.996 103.628 153.003 102.868 151.54 101.4C150.259 100.09 149.292 98.806 148.744 97.7052C148.3 96.7618 147.725 95.2941 147.516 94.4292C147.28 93.5644 147.098 91.8084 147.098 90.498C147.098 89.2138 147.281 87.4317 147.49 86.5668C147.725 85.7019 148.273 84.2341 148.744 83.3168C149.188 82.3996 150.181 80.9843 150.912 80.1719C151.644 79.3594 152.924 78.2326 153.787 77.656C154.623 77.0794 156.269 76.2931 157.419 75.9C159.117 75.3234 159.979 75.1662 161.991 75.1662ZM152.532 68.3521C153.447 68.3521 153.656 68.4307 153.76 68.9548C153.839 69.2693 153.891 69.61 153.891 69.7411C153.891 69.8461 153.107 70.3439 152.14 70.868C151.148 71.3921 149.711 72.3357 148.927 72.9385C148.143 73.5413 146.967 74.6157 146.314 75.3234C145.661 76.031 144.72 77.2104 144.223 77.9181C143.727 78.6519 142.891 80.172 142.368 81.3251C141.82 82.4783 141.192 84.1294 140.983 84.9943C140.748 85.8592 140.461 87.7725 140.174 91.9394H139.259C138.475 91.9394 138.214 91.782 137.43 90.7337C136.934 90.0785 136.306 89.4233 136.071 89.2923C135.81 89.1612 133.458 89.0565 126.064 89.0565L124.758 90.498C123.739 91.5987 123.268 91.9394 121.883 91.9394L121.7 89.6593C121.596 88.3751 121.256 86.4095 120.969 85.2564C120.682 84.1033 120.054 82.3473 119.584 81.3251C119.114 80.3031 118.304 78.914 117.833 78.1802C117.337 77.4725 116.266 76.1621 115.456 75.2973C114.646 74.4324 113.13 73.1218 112.059 72.388C110.988 71.6542 109.629 70.7894 109.028 70.4749C108.401 70.1866 107.905 69.8722 107.931 69.8196C107.957 69.741 108.061 69.4003 108.192 69.0334C108.375 68.483 108.584 68.3521 109.342 68.3521C109.838 68.3521 110.883 68.483 111.641 68.6403C112.373 68.7975 113.731 69.2693 114.646 69.6886C115.534 70.1079 116.945 71.0778 117.781 71.8902C119.14 73.2005 119.375 73.3054 120.525 73.3316C121.7 73.3316 121.831 73.2528 123.399 71.6803C124.47 70.5796 125.359 69.9244 126.064 69.7147C126.639 69.5575 128.782 69.4004 130.898 69.4004C133.563 69.4004 135.026 69.5053 135.862 69.7935C136.672 70.0556 137.508 70.6585 138.554 71.7592C139.991 73.2792 140.095 73.3316 141.349 73.3316C142.603 73.3316 142.76 73.253 143.962 72.0212C144.694 71.3136 145.974 70.3439 146.836 69.9246C147.699 69.5053 149.083 68.9549 149.92 68.7452C150.729 68.5355 151.905 68.3521 152.532 68.3521ZM130.846 6.00279C132.152 5.97658 133.171 6.13383 134.242 6.52695C135.366 6.94628 136.15 7.49666 137.378 8.75465C138.789 10.2223 139.076 10.6679 139.546 12.3452C139.991 13.7866 140.069 14.5728 139.938 15.6734C139.834 16.4596 139.494 17.7177 139.181 18.4253C138.841 19.1591 138.109 20.2599 137.508 20.9151C136.934 21.5703 135.915 22.383 134.033 23.4051V35.7229L138.527 36.1946C141.01 36.4305 144.224 36.9022 145.661 37.1905C147.098 37.4788 149.502 38.1339 151.017 38.6581C152.532 39.156 154.884 40.0995 156.243 40.7547C157.601 41.3837 159.848 42.668 161.207 43.559C162.566 44.4501 164.499 45.9177 165.518 46.7826C166.537 47.6474 168.183 49.3511 169.202 50.5567C170.221 51.7622 171.711 53.7542 172.521 54.9859C173.305 56.2177 174.324 57.9737 174.82 58.9172C175.343 59.9654 175.526 60.5681 175.29 60.4633C175.083 60.3595 172.91 59.7692 170.437 59.0973L170.352 59.0743C167.844 58.4191 164.97 57.8163 163.951 57.7114C162.618 57.5804 161.651 57.659 160.423 57.9735C159.483 58.2356 158.15 58.7336 157.445 59.1268C156.739 59.5199 155.668 60.3848 155.041 61.0924C154.414 61.7738 153.891 62.5077 153.891 62.7173C153.891 63.0055 153.447 63.1367 152.114 63.2415C151.148 63.3201 149.684 63.556 148.848 63.7657C148.038 63.9753 146.497 64.578 145.452 65.1022C144.433 65.6263 143.1 66.4388 141.48 67.7755L140.565 66.9892C140.069 66.5699 138.998 65.8885 138.214 65.4692C137.43 65.0761 136.15 64.6042 135.418 64.447C134.66 64.2897 132.622 64.1588 130.898 64.1588C129.173 64.1588 127.135 64.2897 126.378 64.447C125.646 64.6042 124.418 65.0497 123.712 65.3904C122.981 65.7573 121.936 66.4388 120.316 67.8016L119.662 67.1727C119.297 66.832 118.304 66.1244 117.442 65.6002C116.579 65.0761 114.959 64.3685 113.836 64.0277C112.738 63.6608 111.38 63.3725 110.857 63.3725C110.308 63.3725 109.498 63.32 109.08 63.2151C108.506 63.1103 108.061 62.7172 107.434 61.7737C106.99 61.0661 106.049 60.1227 105.344 59.6509C104.665 59.2054 103.489 58.6026 102.731 58.3405C102 58.0784 100.693 57.7901 99.883 57.7114C98.9162 57.6066 97.5576 57.7114 96.1466 57.9735C94.9186 58.2094 92.2273 58.8646 90.137 59.415C88.0475 59.9913 86.3235 60.4367 86.27 60.4108C86.2439 60.3846 86.688 59.4151 87.2889 58.262C87.8898 57.1088 89.0656 55.1694 89.9018 53.9376C90.7117 52.7058 92.3841 50.6615 93.5861 49.3773C94.788 48.0931 96.826 46.2586 98.1063 45.2889C99.3866 44.3192 101.451 42.9562 102.679 42.2486C103.907 41.5672 105.788 40.6237 106.859 40.152C107.931 39.7064 109.943 38.9725 111.301 38.527C112.66 38.0815 115.012 37.4788 116.527 37.1905C118.043 36.9022 120.394 36.5353 121.753 36.4043C123.111 36.2732 125.019 36.0899 127.762 35.854V23.2741L126.665 22.776C126.038 22.4877 124.993 21.6491 124.313 20.9414C123.608 20.2076 122.798 19.0545 122.484 18.3731C122.04 17.3772 121.91 16.6169 121.883 14.8872C121.883 13.0003 121.988 12.4498 122.589 11.2181C122.955 10.4319 123.765 9.27885 124.339 8.67607C124.94 8.04708 125.907 7.28704 126.508 6.97254C127.109 6.68426 127.919 6.31723 128.285 6.2124C128.651 6.10758 129.8 6.00279 130.846 6.00279Z"/>
</mask>
<path d="M24.854 76.4139C24.854 57.6719 40.0474 42.4785 58.7895 42.4785H202.676C221.418 42.4785 236.611 57.6719 236.611 76.4139V220.3C236.611 239.043 221.418 254.236 202.676 254.236H58.7895C40.0474 254.236 24.854 239.043 24.854 220.3V76.4139Z" fill="url(#paint0_linear_53_9)"/>
<path d="M44.0721 112.12C44.177 112.12 44.9083 112.565 45.6919 113.116C46.5019 113.666 50.2644 116.418 54.0531 119.196C57.8679 122 64.0083 126.56 67.7186 129.338C71.4287 132.142 74.6684 134.658 74.9561 134.947C75.3219 135.288 75.4265 135.628 75.322 136.048C75.217 136.363 71.8466 141.604 67.7969 147.658C64.1869 153.089 61.1447 157.677 60.5194 158.62L60.4026 158.796C60.3764 158.849 61.9703 158.456 63.9299 157.905C65.9158 157.355 70.3314 156.097 73.7803 155.075C77.2292 154.053 82.246 152.533 84.885 151.642C87.5501 150.777 91.0775 149.571 92.7236 148.942C94.3958 148.339 96.5645 147.474 97.5574 147.029C98.5764 146.557 99.4649 146.295 99.5694 146.4C99.674 146.505 100.458 148.968 101.32 151.851C102.182 154.734 104.325 161.863 106.076 167.707C107.826 173.525 109.368 178.505 109.498 178.767C109.681 179.16 111.275 177.666 118.983 169.935C124.099 164.804 128.224 160.588 128.207 160.552C128.181 160.5 126.377 159.714 124.209 158.796C122.066 157.879 118.304 156.149 115.848 154.97C113.418 153.764 110.308 152.139 108.923 151.327C107.565 150.488 105.866 149.388 103.828 147.867L103.672 144.749C103.567 143.019 103.567 141.526 103.672 141.42C103.776 141.316 104.717 141.604 105.788 142.102C106.885 142.6 108.871 143.36 110.23 143.779C111.615 144.225 113.888 144.827 115.325 145.116C116.762 145.404 119.061 145.771 120.42 145.928C121.805 146.059 125.019 146.269 127.605 146.347C130.192 146.452 134.503 146.4 137.142 146.243C139.808 146.085 143.335 145.718 144.981 145.43C146.653 145.142 149.031 144.618 150.285 144.251C151.54 143.884 153.656 143.098 154.989 142.521C156.321 141.918 157.627 141.368 157.915 141.263C158.385 141.106 158.411 141.211 158.228 144.251C158.072 146.61 157.915 147.501 157.575 147.867C157.34 148.156 155.72 149.309 153.995 150.436C152.271 151.589 148.587 153.686 145.765 155.075C142.969 156.49 139.076 158.325 137.09 159.189C135.105 160.054 133.511 160.814 133.537 160.893C133.563 160.946 137.744 165.14 152.036 179.37L152.402 178.452C152.611 177.928 154.309 172.346 156.19 166.004C158.072 159.635 160.136 152.69 160.815 150.541C161.468 148.366 162.069 146.505 162.122 146.4C162.2 146.295 163.089 146.609 164.134 147.081C165.179 147.579 167.504 148.497 169.281 149.152C171.084 149.807 175.212 151.17 178.426 152.192C181.666 153.214 186.369 154.629 188.877 155.337C191.412 156.071 195.201 157.145 197.317 157.722C199.432 158.298 201.234 158.796 201.289 158.796C201.367 158.796 198.127 153.791 194.077 147.71C190.027 141.63 186.63 136.415 186.526 136.126C186.343 135.707 186.5 135.392 187.153 134.763C187.597 134.318 191.438 131.356 195.671 128.185C199.93 125.04 206.514 120.166 210.303 117.387C214.117 114.584 217.409 112.277 217.619 112.224C217.88 112.146 218.377 112.644 218.952 113.509C219.475 114.269 224.413 121.607 229.926 129.836L231.141 131.645C236.395 139.462 242.381 148.37 244.95 152.113C247.693 156.149 250.489 160.395 251.142 161.548C251.796 162.701 252.736 164.693 253.259 166.004C253.781 167.288 254.513 169.647 254.905 171.245C255.532 173.735 255.61 174.626 255.61 177.928C255.61 180.89 255.48 182.148 255.062 183.694C254.774 184.769 254.095 186.603 253.572 187.756C253.05 188.91 252.109 190.613 251.482 191.557C250.855 192.474 249.418 194.177 248.294 195.304C247.171 196.431 245.237 198.03 244.009 198.842C242.807 199.655 240.795 200.756 239.567 201.306C238.365 201.83 236.17 202.59 234.733 202.983C232.669 203.534 231.337 203.691 228.201 203.796C224.935 203.901 223.158 203.77 217.227 203.088C213.36 202.643 207.951 201.961 205.208 201.621C202.49 201.28 199.878 200.991 198.545 200.991L198.414 251.704L197.84 252.543C197.526 253.015 196.768 253.644 196.193 253.932C195.174 254.43 194.7 254.43 65.9156 254.325L64.9488 253.591C64.4263 253.198 63.7993 252.491 63.538 252.019C63.12 251.233 63.0675 249.398 62.9369 200.991L62.1009 201.123C61.6306 201.201 55.9605 201.83 49.4806 202.564C42.1123 203.376 36.5729 203.848 34.5872 203.874C32.7843 203.874 30.5372 203.691 29.2308 203.455C28.0289 203.219 26.1476 202.721 25.0502 202.354C23.9789 201.987 22.1499 201.227 21.0002 200.651C19.8506 200.074 18.2044 199.131 17.3422 198.528C16.4799 197.951 14.9906 196.693 13.9978 195.75C13.0049 194.806 11.6986 193.391 11.0976 192.605C10.4705 191.792 9.5559 190.377 9.03332 189.46C8.51075 188.516 7.77909 186.865 7.41329 185.791C7.02136 184.69 6.55104 182.934 6.36814 181.86C6.15911 180.759 6.00249 178.924 6.00249 177.797C5.97636 176.644 6.15926 174.626 6.39442 173.342C6.60345 172.031 7.23059 169.673 7.75317 168.1C8.27573 166.502 9.29456 164.038 10.0262 162.597C10.7578 161.155 13.2923 157.198 15.6438 153.817C18.0216 150.41 24.8152 140.398 30.7465 131.54C36.6776 122.655 42.0601 114.662 42.7134 113.771C43.3405 112.88 43.9676 112.12 44.0721 112.12ZM161.991 204.634L161.651 205.211C161.442 205.552 160.763 206.652 160.136 207.701C159.509 208.723 159.038 209.64 159.065 209.719C159.092 209.797 164.578 209.876 171.266 209.876C181.535 209.876 183.547 209.823 184.2 209.483C184.618 209.273 185.115 208.854 185.246 208.565C185.376 208.277 185.507 207.674 185.507 207.255C185.507 206.81 185.376 206.233 185.246 205.945C185.115 205.656 184.618 205.237 184.2 205.027C183.547 204.687 181.692 204.634 172.704 204.634H161.991ZM119.453 172.687C119.348 172.688 117.441 174.941 115.22 177.666C112.999 180.418 111.144 182.908 111.092 183.222C111.04 183.538 112.608 189.172 114.567 195.723C116.553 202.275 118.251 207.858 118.382 208.094C118.513 208.356 118.669 208.539 118.722 208.487C118.8 208.461 119.924 202.407 121.23 195.068L123.634 181.702C120.551 174.705 119.558 172.66 119.453 172.687ZM142.447 172.922C142.29 172.923 141.428 174.495 140.513 176.382C139.573 178.295 138.658 180.313 138.449 180.864C138.135 181.755 138.135 182.174 138.527 184.271C138.762 185.607 139.781 191.347 140.827 197.034C141.845 202.72 142.734 207.621 142.812 207.91C142.891 208.225 143.047 208.33 143.178 208.172C143.309 208.041 145.112 202.328 147.202 195.514L151.017 183.144C150.102 181.964 148.247 179.658 146.288 177.273C144.328 174.888 142.603 172.922 142.447 172.922ZM136.672 97.05L141.219 97.2333L141.976 99.0942C142.42 100.143 143.309 101.794 143.988 102.816C144.668 103.838 146.026 105.41 146.993 106.354C147.986 107.297 149.554 108.555 150.494 109.184C151.435 109.787 153.133 110.652 154.283 111.097C155.433 111.569 157.34 112.12 160.632 112.775L160.737 114.609C160.815 115.867 161.076 116.916 161.573 118.017C162.017 118.96 162.853 120.139 163.715 120.978C164.656 121.869 165.884 122.682 169.568 124.438L169.046 125.302C168.785 125.748 168.053 126.822 167.426 127.687C166.799 128.526 165.44 130.02 164.421 131.016C163.376 132.012 161.416 133.532 160.11 134.423C158.777 135.288 156.687 136.493 155.459 137.07C154.231 137.672 152.062 138.511 150.625 138.983C149.188 139.455 146.706 140.11 145.138 140.398C143.57 140.713 140.905 141.054 139.259 141.211C137.613 141.342 133.772 141.473 130.767 141.473C127.762 141.473 123.686 141.289 121.753 141.08C119.819 140.896 117.285 140.529 116.135 140.293C114.985 140.058 112.634 139.402 110.909 138.826C109.185 138.249 106.781 137.253 105.553 136.598C104.325 135.943 102.522 134.842 101.503 134.187C100.484 133.505 98.5505 131.828 97.1918 130.465C95.807 129.103 94.1608 127.189 93.5338 126.193C92.8805 125.224 92.4102 124.411 92.4886 124.359C92.5676 124.332 93.5603 123.835 94.7095 123.258C96.0682 122.603 97.2963 121.712 98.2369 120.768C99.0469 119.982 99.9873 118.75 100.301 118.017C100.719 117.125 100.98 116.051 101.163 112.775L103.436 112.355C104.664 112.12 106.494 111.596 107.513 111.202C108.532 110.783 110.152 109.971 111.118 109.394C112.111 108.791 113.731 107.56 114.75 106.616C115.769 105.673 117.206 103.969 117.99 102.816C118.748 101.663 119.689 99.9328 120.838 97.2072L125.15 97.05L127.893 94.2982H133.903L136.672 97.05ZM98.6289 62.3503C99.883 62.3503 100.798 62.4813 101.503 62.822C102.078 63.0579 102.862 63.6608 103.28 64.1063C103.75 64.6829 103.985 65.2333 103.985 65.8623C103.985 66.3603 103.802 67.2253 103.175 68.7452L101.425 68.5353C100.353 68.4043 98.8118 68.4307 97.4531 68.6142C96.225 68.7714 94.1609 69.2693 92.8805 69.6886C91.6003 70.1079 89.5883 71.0252 88.4387 71.7328C87.289 72.4404 85.7735 73.5411 85.0419 74.1701C84.3364 74.8253 83.239 75.9786 82.638 76.7648C82.0371 77.5511 81.1226 78.8878 80.6 79.7526C80.1036 80.6175 79.2935 82.4521 78.8493 83.8149C78.1962 85.8329 78.0395 86.9075 77.9088 89.4497C77.8304 91.389 77.9086 93.2499 78.0915 94.2982C78.2744 95.2417 78.6926 96.8928 79.0323 97.9673C79.3981 99.0419 80.2343 100.876 80.9136 102.03C81.6714 103.314 82.9254 104.939 84.2318 106.249C85.5382 107.559 87.1322 108.817 88.4387 109.577C89.5883 110.259 91.5219 111.124 92.7499 111.517C93.9779 111.884 95.2321 112.46 95.5717 112.749C95.8853 113.063 96.2249 113.666 96.3033 114.085C96.4078 114.505 96.4078 115.186 96.3033 115.605C96.2249 115.998 95.7024 116.785 95.1538 117.387C94.6051 117.99 93.2463 118.934 91.966 119.589C90.738 120.218 88.2557 121.319 86.4267 122.052C84.2319 122.917 82.1939 123.546 80.5217 123.808C79.1369 124.044 77.5691 124.464 77.0726 124.7C76.5762 124.962 75.6878 125.695 75.113 126.324C74.5382 126.98 73.7804 127.871 72.7614 129.181L70.6711 127.556C69.5215 126.665 65.8634 123.992 62.5712 121.581C59.2529 119.17 54.6541 115.894 48.0698 111.333L48.5923 110.495C48.9059 110.023 49.4284 109.08 49.7681 108.398C50.2123 107.559 50.4997 106.38 50.6826 104.86C50.8133 103.576 51.0745 102.03 51.2835 101.374C51.4664 100.719 51.989 99.5135 52.4593 98.7011C52.9296 97.8624 56.2219 92.6208 59.7754 87.0385C63.3289 81.4299 66.8302 75.9261 67.5357 74.7992C68.2673 73.6461 69.4952 71.9949 70.3052 71.1301C71.1152 70.239 72.4739 69.1645 73.31 68.6927C74.329 68.1424 76.0536 67.5658 78.3791 67.0417C80.3126 66.5961 84.5455 65.5478 87.7854 64.683C91.0254 63.8181 94.3699 62.9531 95.2321 62.7434C96.0944 62.56 97.6099 62.3765 98.6289 62.3503ZM163.115 62.3242C164.134 62.3242 167.321 63.0055 173.435 64.5256C178.269 65.7311 183.181 66.9368 184.331 67.1988C185.481 67.4347 187.179 68.0375 188.12 68.5092C189.113 69.0334 190.419 70.003 191.308 70.8941C192.327 71.9424 195.357 76.4505 201.21 85.6495C205.835 92.9353 209.911 99.5135 210.251 100.274C210.591 101.007 210.982 102.501 211.113 103.55C211.27 104.572 211.505 106.039 211.636 106.747C211.792 107.507 212.341 108.765 213.987 111.333L209.362 114.531C206.802 116.287 202.647 119.196 200.139 121.004C197.631 122.786 194.103 125.381 192.3 126.717C189.165 129.076 189.008 129.155 188.642 128.683C188.433 128.421 187.858 127.635 187.414 126.953C186.918 126.298 186.003 125.433 185.324 125.04C184.488 124.542 183.181 124.149 181.326 123.835C179.314 123.494 177.616 122.944 174.925 121.843C172.913 121.004 170.614 120.008 169.83 119.615C169.046 119.248 167.87 118.514 167.243 117.964C166.616 117.414 165.936 116.654 165.753 116.261C165.544 115.841 165.388 115.212 165.388 114.819C165.388 114.4 165.649 113.692 165.963 113.194C166.459 112.46 166.903 112.172 168.393 111.727C169.412 111.412 171.032 110.731 172.051 110.233C173.07 109.709 174.637 108.686 175.578 107.953C176.519 107.192 177.956 105.803 178.792 104.834C179.602 103.864 180.804 102.082 181.431 100.85C182.058 99.6185 182.842 97.8101 183.129 96.7879C183.443 95.7921 183.809 94.0099 183.939 92.8567C184.122 91.4415 184.122 89.9738 183.939 88.2703C183.782 86.9075 183.312 84.7322 182.868 83.4218C182.45 82.1376 181.614 80.2506 181.013 79.2285C180.359 78.0753 179.001 76.4504 177.433 74.9041C175.761 73.2269 174.272 72.0474 172.965 71.3136C171.894 70.7108 170.117 69.9245 169.046 69.5576C167.975 69.2169 166.093 68.7714 164.865 68.6142C163.559 68.4307 161.834 68.3781 158.725 68.6664L158.228 67.5395C157.915 66.7795 157.81 66.0719 157.915 65.4692C157.993 64.9712 158.385 64.2372 158.777 63.8179C159.195 63.4248 159.979 62.927 160.554 62.7173C161.129 62.5077 162.278 62.3504 163.115 62.3242ZM144.041 119.799C143.361 119.537 140.435 119.458 130.846 119.484C123.268 119.484 118.225 119.589 117.833 119.746C117.467 119.903 116.919 120.27 116.579 120.585C116.161 121.004 116.004 121.45 116.004 122.21C116.004 122.786 116.213 123.546 116.448 123.887C116.71 124.254 117.311 124.699 117.755 124.883C118.434 125.145 121.439 125.224 131.185 125.224H143.753C145.53 123.494 145.765 123.048 145.791 122.341C145.791 121.843 145.582 121.135 145.347 120.795C145.086 120.428 144.485 119.982 144.041 119.799ZM99.4127 75.1662C100.719 75.1662 102.47 75.3496 103.332 75.5854C104.194 75.8213 105.71 76.4242 106.729 76.9483C107.878 77.5511 109.263 78.5995 110.413 79.7526C111.824 81.1679 112.503 82.1114 113.313 83.8149C113.914 85.0467 114.515 86.6716 114.672 87.4316C114.829 88.1654 114.959 89.6593 114.959 90.7076C114.959 91.7297 114.776 93.3023 114.567 94.1671C114.358 95.032 113.757 96.5521 113.261 97.5742C112.764 98.5963 111.85 100.012 111.223 100.719C110.596 101.453 109.263 102.58 108.27 103.261C107.277 103.969 105.762 104.755 104.9 105.07C104.038 105.358 102.391 105.751 101.242 105.882C99.5173 106.118 98.7856 106.092 97.0611 105.751C95.9115 105.489 94.1608 104.912 93.1418 104.441C91.9661 103.89 90.6596 102.947 89.4838 101.846C88.4648 100.903 87.2368 99.4349 86.7403 98.5701C86.2439 97.7314 85.5646 96.29 85.2249 95.3465C84.8852 94.403 84.5454 92.6995 84.467 91.5463C84.3625 90.0263 84.441 88.873 84.7806 87.353C85.0419 86.1999 85.6428 84.4963 86.1131 83.5528C86.5834 82.6093 87.6026 81.1416 88.3603 80.3029C89.118 79.4381 90.4506 78.2849 91.3128 77.6821C92.1751 77.1055 93.8212 76.2931 94.9708 75.9C96.6692 75.3234 97.5053 75.1662 99.4127 75.1662ZM161.991 75.1662C163.533 75.1662 165.022 75.3234 165.91 75.5854C166.694 75.8213 168.157 76.4242 169.176 76.9483C170.274 77.5249 171.685 78.5995 172.73 79.6216C173.67 80.5651 174.82 81.9804 175.264 82.7666C175.709 83.5528 176.336 84.9157 176.623 85.7805C176.963 86.7502 177.25 88.3228 177.329 89.8428C177.433 91.7035 177.355 92.7519 177.041 94.0361C176.806 94.9796 176.231 96.4997 175.761 97.4432C175.264 98.4391 174.193 99.9067 173.2 100.981C172.233 102.003 170.718 103.261 169.803 103.812C168.889 104.362 167.426 105.017 166.564 105.279C165.701 105.568 164.186 105.856 163.167 105.961C161.887 106.092 160.737 106.013 159.378 105.725C158.307 105.489 156.53 104.886 155.459 104.362C153.996 103.628 153.003 102.868 151.54 101.4C150.259 100.09 149.292 98.806 148.744 97.7052C148.3 96.7618 147.725 95.2941 147.516 94.4292C147.28 93.5644 147.098 91.8084 147.098 90.498C147.098 89.2138 147.281 87.4317 147.49 86.5668C147.725 85.7019 148.273 84.2341 148.744 83.3168C149.188 82.3996 150.181 80.9843 150.912 80.1719C151.644 79.3594 152.924 78.2326 153.787 77.656C154.623 77.0794 156.269 76.2931 157.419 75.9C159.117 75.3234 159.979 75.1662 161.991 75.1662ZM152.532 68.3521C153.447 68.3521 153.656 68.4307 153.76 68.9548C153.839 69.2693 153.891 69.61 153.891 69.7411C153.891 69.8461 153.107 70.3439 152.14 70.868C151.148 71.3921 149.711 72.3357 148.927 72.9385C148.143 73.5413 146.967 74.6157 146.314 75.3234C145.661 76.031 144.72 77.2104 144.223 77.9181C143.727 78.6519 142.891 80.172 142.368 81.3251C141.82 82.4783 141.192 84.1294 140.983 84.9943C140.748 85.8592 140.461 87.7725 140.174 91.9394H139.259C138.475 91.9394 138.214 91.782 137.43 90.7337C136.934 90.0785 136.306 89.4233 136.071 89.2923C135.81 89.1612 133.458 89.0565 126.064 89.0565L124.758 90.498C123.739 91.5987 123.268 91.9394 121.883 91.9394L121.7 89.6593C121.596 88.3751 121.256 86.4095 120.969 85.2564C120.682 84.1033 120.054 82.3473 119.584 81.3251C119.114 80.3031 118.304 78.914 117.833 78.1802C117.337 77.4725 116.266 76.1621 115.456 75.2973C114.646 74.4324 113.13 73.1218 112.059 72.388C110.988 71.6542 109.629 70.7894 109.028 70.4749C108.401 70.1866 107.905 69.8722 107.931 69.8196C107.957 69.741 108.061 69.4003 108.192 69.0334C108.375 68.483 108.584 68.3521 109.342 68.3521C109.838 68.3521 110.883 68.483 111.641 68.6403C112.373 68.7975 113.731 69.2693 114.646 69.6886C115.534 70.1079 116.945 71.0778 117.781 71.8902C119.14 73.2005 119.375 73.3054 120.525 73.3316C121.7 73.3316 121.831 73.2528 123.399 71.6803C124.47 70.5796 125.359 69.9244 126.064 69.7147C126.639 69.5575 128.782 69.4004 130.898 69.4004C133.563 69.4004 135.026 69.5053 135.862 69.7935C136.672 70.0556 137.508 70.6585 138.554 71.7592C139.991 73.2792 140.095 73.3316 141.349 73.3316C142.603 73.3316 142.76 73.253 143.962 72.0212C144.694 71.3136 145.974 70.3439 146.836 69.9246C147.699 69.5053 149.083 68.9549 149.92 68.7452C150.729 68.5355 151.905 68.3521 152.532 68.3521ZM130.846 6.00279C132.152 5.97658 133.171 6.13383 134.242 6.52695C135.366 6.94628 136.15 7.49666 137.378 8.75465C138.789 10.2223 139.076 10.6679 139.546 12.3452C139.991 13.7866 140.069 14.5728 139.938 15.6734C139.834 16.4596 139.494 17.7177 139.181 18.4253C138.841 19.1591 138.109 20.2599 137.508 20.9151C136.934 21.5703 135.915 22.383 134.033 23.4051V35.7229L138.527 36.1946C141.01 36.4305 144.224 36.9022 145.661 37.1905C147.098 37.4788 149.502 38.1339 151.017 38.6581C152.532 39.156 154.884 40.0995 156.243 40.7547C157.601 41.3837 159.848 42.668 161.207 43.559C162.566 44.4501 164.499 45.9177 165.518 46.7826C166.537 47.6474 168.183 49.3511 169.202 50.5567C170.221 51.7622 171.711 53.7542 172.521 54.9859C173.305 56.2177 174.324 57.9737 174.82 58.9172C175.343 59.9654 175.526 60.5681 175.29 60.4633C175.083 60.3595 172.91 59.7692 170.437 59.0973L170.352 59.0743C167.844 58.4191 164.97 57.8163 163.951 57.7114C162.618 57.5804 161.651 57.659 160.423 57.9735C159.483 58.2356 158.15 58.7336 157.445 59.1268C156.739 59.5199 155.668 60.3848 155.041 61.0924C154.414 61.7738 153.891 62.5077 153.891 62.7173C153.891 63.0055 153.447 63.1367 152.114 63.2415C151.148 63.3201 149.684 63.556 148.848 63.7657C148.038 63.9753 146.497 64.578 145.452 65.1022C144.433 65.6263 143.1 66.4388 141.48 67.7755L140.565 66.9892C140.069 66.5699 138.998 65.8885 138.214 65.4692C137.43 65.0761 136.15 64.6042 135.418 64.447C134.66 64.2897 132.622 64.1588 130.898 64.1588C129.173 64.1588 127.135 64.2897 126.378 64.447C125.646 64.6042 124.418 65.0497 123.712 65.3904C122.981 65.7573 121.936 66.4388 120.316 67.8016L119.662 67.1727C119.297 66.832 118.304 66.1244 117.442 65.6002C116.579 65.0761 114.959 64.3685 113.836 64.0277C112.738 63.6608 111.38 63.3725 110.857 63.3725C110.308 63.3725 109.498 63.32 109.08 63.2151C108.506 63.1103 108.061 62.7172 107.434 61.7737C106.99 61.0661 106.049 60.1227 105.344 59.6509C104.665 59.2054 103.489 58.6026 102.731 58.3405C102 58.0784 100.693 57.7901 99.883 57.7114C98.9162 57.6066 97.5576 57.7114 96.1466 57.9735C94.9186 58.2094 92.2273 58.8646 90.137 59.415C88.0475 59.9913 86.3235 60.4367 86.27 60.4108C86.2439 60.3846 86.688 59.4151 87.2889 58.262C87.8898 57.1088 89.0656 55.1694 89.9018 53.9376C90.7117 52.7058 92.3841 50.6615 93.5861 49.3773C94.788 48.0931 96.826 46.2586 98.1063 45.2889C99.3866 44.3192 101.451 42.9562 102.679 42.2486C103.907 41.5672 105.788 40.6237 106.859 40.152C107.931 39.7064 109.943 38.9725 111.301 38.527C112.66 38.0815 115.012 37.4788 116.527 37.1905C118.043 36.9022 120.394 36.5353 121.753 36.4043C123.111 36.2732 125.019 36.0899 127.762 35.854V23.2741L126.665 22.776C126.038 22.4877 124.993 21.6491 124.313 20.9414C123.608 20.2076 122.798 19.0545 122.484 18.3731C122.04 17.3772 121.91 16.6169 121.883 14.8872C121.883 13.0003 121.988 12.4498 122.589 11.2181C122.955 10.4319 123.765 9.27885 124.339 8.67607C124.94 8.04708 125.907 7.28704 126.508 6.97254C127.109 6.68426 127.919 6.31723 128.285 6.2124C128.651 6.10758 129.8 6.00279 130.846 6.00279Z" fill="white"/>
<path d="M24.854 76.4139C24.854 57.6719 40.0474 42.4785 58.7895 42.4785H202.676C221.418 42.4785 236.611 57.6719 236.611 76.4139V220.3C236.611 239.043 221.418 254.236 202.676 254.236H58.7895C40.0474 254.236 24.854 239.043 24.854 220.3V76.4139Z" stroke="url(#paint1_linear_53_9)" stroke-width="12" mask="url(#path-1-outside-1_53_9)"/>
<path d="M44.0721 112.12C44.177 112.12 44.9083 112.565 45.6919 113.116C46.5019 113.666 50.2644 116.418 54.0531 119.196C57.8679 122 64.0083 126.56 67.7186 129.338C71.4287 132.142 74.6684 134.658 74.9561 134.947C75.3219 135.288 75.4265 135.628 75.322 136.048C75.217 136.363 71.8466 141.604 67.7969 147.658C64.1869 153.089 61.1447 157.677 60.5194 158.62L60.4026 158.796C60.3764 158.849 61.9703 158.456 63.9299 157.905C65.9158 157.355 70.3314 156.097 73.7803 155.075C77.2292 154.053 82.246 152.533 84.885 151.642C87.5501 150.777 91.0775 149.571 92.7236 148.942C94.3958 148.339 96.5645 147.474 97.5574 147.029C98.5764 146.557 99.4649 146.295 99.5694 146.4C99.674 146.505 100.458 148.968 101.32 151.851C102.182 154.734 104.325 161.863 106.076 167.707C107.826 173.525 109.368 178.505 109.498 178.767C109.681 179.16 111.275 177.666 118.983 169.935C124.099 164.804 128.224 160.588 128.207 160.552C128.181 160.5 126.377 159.714 124.209 158.796C122.066 157.879 118.304 156.149 115.848 154.97C113.418 153.764 110.308 152.139 108.923 151.327C107.565 150.488 105.866 149.388 103.828 147.867L103.672 144.749C103.567 143.019 103.567 141.526 103.672 141.42C103.776 141.316 104.717 141.604 105.788 142.102C106.885 142.6 108.871 143.36 110.23 143.779C111.615 144.225 113.888 144.827 115.325 145.116C116.762 145.404 119.061 145.771 120.42 145.928C121.805 146.059 125.019 146.269 127.605 146.347C130.192 146.452 134.503 146.4 137.142 146.243C139.808 146.085 143.335 145.718 144.981 145.43C146.653 145.142 149.031 144.618 150.285 144.251C151.54 143.884 153.656 143.098 154.989 142.521C156.321 141.918 157.627 141.368 157.915 141.263C158.385 141.106 158.411 141.211 158.228 144.251C158.072 146.61 157.915 147.501 157.575 147.867C157.34 148.156 155.72 149.309 153.995 150.436C152.271 151.589 148.587 153.686 145.765 155.075C142.969 156.49 139.076 158.325 137.09 159.189C135.105 160.054 133.511 160.814 133.537 160.893C133.563 160.946 137.744 165.14 152.036 179.37L152.402 178.452C152.611 177.928 154.309 172.346 156.19 166.004C158.072 159.635 160.136 152.69 160.815 150.541C161.468 148.366 162.069 146.505 162.122 146.4C162.2 146.295 163.089 146.609 164.134 147.081C165.179 147.579 167.504 148.497 169.281 149.152C171.084 149.807 175.212 151.17 178.426 152.192C181.666 153.214 186.369 154.629 188.877 155.337C191.412 156.071 195.201 157.145 197.317 157.722C199.432 158.298 201.234 158.796 201.289 158.796C201.367 158.796 198.127 153.791 194.077 147.71C190.027 141.63 186.63 136.415 186.526 136.126C186.343 135.707 186.5 135.392 187.153 134.763C187.597 134.318 191.438 131.356 195.671 128.185C199.93 125.04 206.514 120.166 210.303 117.387C214.117 114.584 217.409 112.277 217.619 112.224C217.88 112.146 218.377 112.644 218.952 113.509C219.475 114.269 224.413 121.607 229.926 129.836L231.141 131.645C236.395 139.462 242.381 148.37 244.95 152.113C247.693 156.149 250.489 160.395 251.142 161.548C251.796 162.701 252.736 164.693 253.259 166.004C253.781 167.288 254.513 169.647 254.905 171.245C255.532 173.735 255.61 174.626 255.61 177.928C255.61 180.89 255.48 182.148 255.062 183.694C254.774 184.769 254.095 186.603 253.572 187.756C253.05 188.91 252.109 190.613 251.482 191.557C250.855 192.474 249.418 194.177 248.294 195.304C247.171 196.431 245.237 198.03 244.009 198.842C242.807 199.655 240.795 200.756 239.567 201.306C238.365 201.83 236.17 202.59 234.733 202.983C232.669 203.534 231.337 203.691 228.201 203.796C224.935 203.901 223.158 203.77 217.227 203.088C213.36 202.643 207.951 201.961 205.208 201.621C202.49 201.28 199.878 200.991 198.545 200.991L198.414 251.704L197.84 252.543C197.526 253.015 196.768 253.644 196.193 253.932C195.174 254.43 194.7 254.43 65.9156 254.325L64.9488 253.591C64.4263 253.198 63.7993 252.491 63.538 252.019C63.12 251.233 63.0675 249.398 62.9369 200.991L62.1009 201.123C61.6306 201.201 55.9605 201.83 49.4806 202.564C42.1123 203.376 36.5729 203.848 34.5872 203.874C32.7843 203.874 30.5372 203.691 29.2308 203.455C28.0289 203.219 26.1476 202.721 25.0502 202.354C23.9789 201.987 22.1499 201.227 21.0002 200.651C19.8506 200.074 18.2044 199.131 17.3422 198.528C16.4799 197.951 14.9906 196.693 13.9978 195.75C13.0049 194.806 11.6986 193.391 11.0976 192.605C10.4705 191.792 9.5559 190.377 9.03332 189.46C8.51075 188.516 7.77909 186.865 7.41329 185.791C7.02136 184.69 6.55104 182.934 6.36814 181.86C6.15911 180.759 6.00249 178.924 6.00249 177.797C5.97636 176.644 6.15926 174.626 6.39442 173.342C6.60345 172.031 7.23059 169.673 7.75317 168.1C8.27573 166.502 9.29456 164.038 10.0262 162.597C10.7578 161.155 13.2923 157.198 15.6438 153.817C18.0216 150.41 24.8152 140.398 30.7465 131.54C36.6776 122.655 42.0601 114.662 42.7134 113.771C43.3405 112.88 43.9676 112.12 44.0721 112.12ZM161.991 204.634L161.651 205.211C161.442 205.552 160.763 206.652 160.136 207.701C159.509 208.723 159.038 209.64 159.065 209.719C159.092 209.797 164.578 209.876 171.266 209.876C181.535 209.876 183.547 209.823 184.2 209.483C184.618 209.273 185.115 208.854 185.246 208.565C185.376 208.277 185.507 207.674 185.507 207.255C185.507 206.81 185.376 206.233 185.246 205.945C185.115 205.656 184.618 205.237 184.2 205.027C183.547 204.687 181.692 204.634 172.704 204.634H161.991ZM119.453 172.687C119.348 172.688 117.441 174.941 115.22 177.666C112.999 180.418 111.144 182.908 111.092 183.222C111.04 183.538 112.608 189.172 114.567 195.723C116.553 202.275 118.251 207.858 118.382 208.094C118.513 208.356 118.669 208.539 118.722 208.487C118.8 208.461 119.924 202.407 121.23 195.068L123.634 181.702C120.551 174.705 119.558 172.66 119.453 172.687ZM142.447 172.922C142.29 172.923 141.428 174.495 140.513 176.382C139.573 178.295 138.658 180.313 138.449 180.864C138.135 181.755 138.135 182.174 138.527 184.271C138.762 185.607 139.781 191.347 140.827 197.034C141.845 202.72 142.734 207.621 142.812 207.91C142.891 208.225 143.047 208.33 143.178 208.172C143.309 208.041 145.112 202.328 147.202 195.514L151.017 183.144C150.102 181.964 148.247 179.658 146.288 177.273C144.328 174.888 142.603 172.922 142.447 172.922ZM136.672 97.05L141.219 97.2333L141.976 99.0942C142.42 100.143 143.309 101.794 143.988 102.816C144.668 103.838 146.026 105.41 146.993 106.354C147.986 107.297 149.554 108.555 150.494 109.184C151.435 109.787 153.133 110.652 154.283 111.097C155.433 111.569 157.34 112.12 160.632 112.775L160.737 114.609C160.815 115.867 161.076 116.916 161.573 118.017C162.017 118.96 162.853 120.139 163.715 120.978C164.656 121.869 165.884 122.682 169.568 124.438L169.046 125.302C168.785 125.748 168.053 126.822 167.426 127.687C166.799 128.526 165.44 130.02 164.421 131.016C163.376 132.012 161.416 133.532 160.11 134.423C158.777 135.288 156.687 136.493 155.459 137.07C154.231 137.672 152.062 138.511 150.625 138.983C149.188 139.455 146.706 140.11 145.138 140.398C143.57 140.713 140.905 141.054 139.259 141.211C137.613 141.342 133.772 141.473 130.767 141.473C127.762 141.473 123.686 141.289 121.753 141.08C119.819 140.896 117.285 140.529 116.135 140.293C114.985 140.058 112.634 139.402 110.909 138.826C109.185 138.249 106.781 137.253 105.553 136.598C104.325 135.943 102.522 134.842 101.503 134.187C100.484 133.505 98.5505 131.828 97.1918 130.465C95.807 129.103 94.1608 127.189 93.5338 126.193C92.8805 125.224 92.4102 124.411 92.4886 124.359C92.5676 124.332 93.5603 123.835 94.7095 123.258C96.0682 122.603 97.2963 121.712 98.2369 120.768C99.0469 119.982 99.9873 118.75 100.301 118.017C100.719 117.125 100.98 116.051 101.163 112.775L103.436 112.355C104.664 112.12 106.494 111.596 107.513 111.202C108.532 110.783 110.152 109.971 111.118 109.394C112.111 108.791 113.731 107.56 114.75 106.616C115.769 105.673 117.206 103.969 117.99 102.816C118.748 101.663 119.689 99.9328 120.838 97.2072L125.15 97.05L127.893 94.2982H133.903L136.672 97.05ZM98.6289 62.3503C99.883 62.3503 100.798 62.4813 101.503 62.822C102.078 63.0579 102.862 63.6608 103.28 64.1063C103.75 64.6829 103.985 65.2333 103.985 65.8623C103.985 66.3603 103.802 67.2253 103.175 68.7452L101.425 68.5353C100.353 68.4043 98.8118 68.4307 97.4531 68.6142C96.225 68.7714 94.1609 69.2693 92.8805 69.6886C91.6003 70.1079 89.5883 71.0252 88.4387 71.7328C87.289 72.4404 85.7735 73.5411 85.0419 74.1701C84.3364 74.8253 83.239 75.9786 82.638 76.7648C82.0371 77.5511 81.1226 78.8878 80.6 79.7526C80.1036 80.6175 79.2935 82.4521 78.8493 83.8149C78.1962 85.8329 78.0395 86.9075 77.9088 89.4497C77.8304 91.389 77.9086 93.2499 78.0915 94.2982C78.2744 95.2417 78.6926 96.8928 79.0323 97.9673C79.3981 99.0419 80.2343 100.876 80.9136 102.03C81.6714 103.314 82.9254 104.939 84.2318 106.249C85.5382 107.559 87.1322 108.817 88.4387 109.577C89.5883 110.259 91.5219 111.124 92.7499 111.517C93.9779 111.884 95.2321 112.46 95.5717 112.749C95.8853 113.063 96.2249 113.666 96.3033 114.085C96.4078 114.505 96.4078 115.186 96.3033 115.605C96.2249 115.998 95.7024 116.785 95.1538 117.387C94.6051 117.99 93.2463 118.934 91.966 119.589C90.738 120.218 88.2557 121.319 86.4267 122.052C84.2319 122.917 82.1939 123.546 80.5217 123.808C79.1369 124.044 77.5691 124.464 77.0726 124.7C76.5762 124.962 75.6878 125.695 75.113 126.324C74.5382 126.98 73.7804 127.871 72.7614 129.181L70.6711 127.556C69.5215 126.665 65.8634 123.992 62.5712 121.581C59.2529 119.17 54.6541 115.894 48.0698 111.333L48.5923 110.495C48.9059 110.023 49.4284 109.08 49.7681 108.398C50.2123 107.559 50.4997 106.38 50.6826 104.86C50.8133 103.576 51.0745 102.03 51.2835 101.374C51.4664 100.719 51.989 99.5135 52.4593 98.7011C52.9296 97.8624 56.2219 92.6208 59.7754 87.0385C63.3289 81.4299 66.8302 75.9261 67.5357 74.7992C68.2673 73.6461 69.4952 71.9949 70.3052 71.1301C71.1152 70.239 72.4739 69.1645 73.31 68.6927C74.329 68.1424 76.0536 67.5658 78.3791 67.0417C80.3126 66.5961 84.5455 65.5478 87.7854 64.683C91.0254 63.8181 94.3699 62.9531 95.2321 62.7434C96.0944 62.56 97.6099 62.3765 98.6289 62.3503ZM163.115 62.3242C164.134 62.3242 167.321 63.0055 173.435 64.5256C178.269 65.7311 183.181 66.9368 184.331 67.1988C185.481 67.4347 187.179 68.0375 188.12 68.5092C189.113 69.0334 190.419 70.003 191.308 70.8941C192.327 71.9424 195.357 76.4505 201.21 85.6495C205.835 92.9353 209.911 99.5135 210.251 100.274C210.591 101.007 210.982 102.501 211.113 103.55C211.27 104.572 211.505 106.039 211.636 106.747C211.792 107.507 212.341 108.765 213.987 111.333L209.362 114.531C206.802 116.287 202.647 119.196 200.139 121.004C197.631 122.786 194.103 125.381 192.3 126.717C189.165 129.076 189.008 129.155 188.642 128.683C188.433 128.421 187.858 127.635 187.414 126.953C186.918 126.298 186.003 125.433 185.324 125.04C184.488 124.542 183.181 124.149 181.326 123.835C179.314 123.494 177.616 122.944 174.925 121.843C172.913 121.004 170.614 120.008 169.83 119.615C169.046 119.248 167.87 118.514 167.243 117.964C166.616 117.414 165.936 116.654 165.753 116.261C165.544 115.841 165.388 115.212 165.388 114.819C165.388 114.4 165.649 113.692 165.963 113.194C166.459 112.46 166.903 112.172 168.393 111.727C169.412 111.412 171.032 110.731 172.051 110.233C173.07 109.709 174.637 108.686 175.578 107.953C176.519 107.192 177.956 105.803 178.792 104.834C179.602 103.864 180.804 102.082 181.431 100.85C182.058 99.6185 182.842 97.8101 183.129 96.7879C183.443 95.7921 183.809 94.0099 183.939 92.8567C184.122 91.4415 184.122 89.9738 183.939 88.2703C183.782 86.9075 183.312 84.7322 182.868 83.4218C182.45 82.1376 181.614 80.2506 181.013 79.2285C180.359 78.0753 179.001 76.4504 177.433 74.9041C175.761 73.2269 174.272 72.0474 172.965 71.3136C171.894 70.7108 170.117 69.9245 169.046 69.5576C167.975 69.2169 166.093 68.7714 164.865 68.6142C163.559 68.4307 161.834 68.3781 158.725 68.6664L158.228 67.5395C157.915 66.7795 157.81 66.0719 157.915 65.4692C157.993 64.9712 158.385 64.2372 158.777 63.8179C159.195 63.4248 159.979 62.927 160.554 62.7173C161.129 62.5077 162.278 62.3504 163.115 62.3242ZM144.041 119.799C143.361 119.537 140.435 119.458 130.846 119.484C123.268 119.484 118.225 119.589 117.833 119.746C117.467 119.903 116.919 120.27 116.579 120.585C116.161 121.004 116.004 121.45 116.004 122.21C116.004 122.786 116.213 123.546 116.448 123.887C116.71 124.254 117.311 124.699 117.755 124.883C118.434 125.145 121.439 125.224 131.185 125.224H143.753C145.53 123.494 145.765 123.048 145.791 122.341C145.791 121.843 145.582 121.135 145.347 120.795C145.086 120.428 144.485 119.982 144.041 119.799ZM99.4127 75.1662C100.719 75.1662 102.47 75.3496 103.332 75.5854C104.194 75.8213 105.71 76.4242 106.729 76.9483C107.878 77.5511 109.263 78.5995 110.413 79.7526C111.824 81.1679 112.503 82.1114 113.313 83.8149C113.914 85.0467 114.515 86.6716 114.672 87.4316C114.829 88.1654 114.959 89.6593 114.959 90.7076C114.959 91.7297 114.776 93.3023 114.567 94.1671C114.358 95.032 113.757 96.5521 113.261 97.5742C112.764 98.5963 111.85 100.012 111.223 100.719C110.596 101.453 109.263 102.58 108.27 103.261C107.277 103.969 105.762 104.755 104.9 105.07C104.038 105.358 102.391 105.751 101.242 105.882C99.5173 106.118 98.7856 106.092 97.0611 105.751C95.9115 105.489 94.1608 104.912 93.1418 104.441C91.9661 103.89 90.6596 102.947 89.4838 101.846C88.4648 100.903 87.2368 99.4349 86.7403 98.5701C86.2439 97.7314 85.5646 96.29 85.2249 95.3465C84.8852 94.403 84.5454 92.6995 84.467 91.5463C84.3625 90.0263 84.441 88.873 84.7806 87.353C85.0419 86.1999 85.6428 84.4963 86.1131 83.5528C86.5834 82.6093 87.6026 81.1416 88.3603 80.3029C89.118 79.4381 90.4506 78.2849 91.3128 77.6821C92.1751 77.1055 93.8212 76.2931 94.9708 75.9C96.6692 75.3234 97.5053 75.1662 99.4127 75.1662ZM161.991 75.1662C163.533 75.1662 165.022 75.3234 165.91 75.5854C166.694 75.8213 168.157 76.4242 169.176 76.9483C170.274 77.5249 171.685 78.5995 172.73 79.6216C173.67 80.5651 174.82 81.9804 175.264 82.7666C175.709 83.5528 176.336 84.9157 176.623 85.7805C176.963 86.7502 177.25 88.3228 177.329 89.8428C177.433 91.7035 177.355 92.7519 177.041 94.0361C176.806 94.9796 176.231 96.4997 175.761 97.4432C175.264 98.4391 174.193 99.9067 173.2 100.981C172.233 102.003 170.718 103.261 169.803 103.812C168.889 104.362 167.426 105.017 166.564 105.279C165.701 105.568 164.186 105.856 163.167 105.961C161.887 106.092 160.737 106.013 159.378 105.725C158.307 105.489 156.53 104.886 155.459 104.362C153.996 103.628 153.003 102.868 151.54 101.4C150.259 100.09 149.292 98.806 148.744 97.7052C148.3 96.7618 147.725 95.2941 147.516 94.4292C147.28 93.5644 147.098 91.8084 147.098 90.498C147.098 89.2138 147.281 87.4317 147.49 86.5668C147.725 85.7019 148.273 84.2341 148.744 83.3168C149.188 82.3996 150.181 80.9843 150.912 80.1719C151.644 79.3594 152.924 78.2326 153.787 77.656C154.623 77.0794 156.269 76.2931 157.419 75.9C159.117 75.3234 159.979 75.1662 161.991 75.1662ZM152.532 68.3521C153.447 68.3521 153.656 68.4307 153.76 68.9548C153.839 69.2693 153.891 69.61 153.891 69.7411C153.891 69.8461 153.107 70.3439 152.14 70.868C151.148 71.3921 149.711 72.3357 148.927 72.9385C148.143 73.5413 146.967 74.6157 146.314 75.3234C145.661 76.031 144.72 77.2104 144.223 77.9181C143.727 78.6519 142.891 80.172 142.368 81.3251C141.82 82.4783 141.192 84.1294 140.983 84.9943C140.748 85.8592 140.461 87.7725 140.174 91.9394H139.259C138.475 91.9394 138.214 91.782 137.43 90.7337C136.934 90.0785 136.306 89.4233 136.071 89.2923C135.81 89.1612 133.458 89.0565 126.064 89.0565L124.758 90.498C123.739 91.5987 123.268 91.9394 121.883 91.9394L121.7 89.6593C121.596 88.3751 121.256 86.4095 120.969 85.2564C120.682 84.1033 120.054 82.3473 119.584 81.3251C119.114 80.3031 118.304 78.914 117.833 78.1802C117.337 77.4725 116.266 76.1621 115.456 75.2973C114.646 74.4324 113.13 73.1218 112.059 72.388C110.988 71.6542 109.629 70.7894 109.028 70.4749C108.401 70.1866 107.905 69.8722 107.931 69.8196C107.957 69.741 108.061 69.4003 108.192 69.0334C108.375 68.483 108.584 68.3521 109.342 68.3521C109.838 68.3521 110.883 68.483 111.641 68.6403C112.373 68.7975 113.731 69.2693 114.646 69.6886C115.534 70.1079 116.945 71.0778 117.781 71.8902C119.14 73.2005 119.375 73.3054 120.525 73.3316C121.7 73.3316 121.831 73.2528 123.399 71.6803C124.47 70.5796 125.359 69.9244 126.064 69.7147C126.639 69.5575 128.782 69.4004 130.898 69.4004C133.563 69.4004 135.026 69.5053 135.862 69.7935C136.672 70.0556 137.508 70.6585 138.554 71.7592C139.991 73.2792 140.095 73.3316 141.349 73.3316C142.603 73.3316 142.76 73.253 143.962 72.0212C144.694 71.3136 145.974 70.3439 146.836 69.9246C147.699 69.5053 149.083 68.9549 149.92 68.7452C150.729 68.5355 151.905 68.3521 152.532 68.3521ZM130.846 6.00279C132.152 5.97658 133.171 6.13383 134.242 6.52695C135.366 6.94628 136.15 7.49666 137.378 8.75465C138.789 10.2223 139.076 10.6679 139.546 12.3452C139.991 13.7866 140.069 14.5728 139.938 15.6734C139.834 16.4596 139.494 17.7177 139.181 18.4253C138.841 19.1591 138.109 20.2599 137.508 20.9151C136.934 21.5703 135.915 22.383 134.033 23.4051V35.7229L138.527 36.1946C141.01 36.4305 144.224 36.9022 145.661 37.1905C147.098 37.4788 149.502 38.1339 151.017 38.6581C152.532 39.156 154.884 40.0995 156.243 40.7547C157.601 41.3837 159.848 42.668 161.207 43.559C162.566 44.4501 164.499 45.9177 165.518 46.7826C166.537 47.6474 168.183 49.3511 169.202 50.5567C170.221 51.7622 171.711 53.7542 172.521 54.9859C173.305 56.2177 174.324 57.9737 174.82 58.9172C175.343 59.9654 175.526 60.5681 175.29 60.4633C175.083 60.3595 172.91 59.7692 170.437 59.0973L170.352 59.0743C167.844 58.4191 164.97 57.8163 163.951 57.7114C162.618 57.5804 161.651 57.659 160.423 57.9735C159.483 58.2356 158.15 58.7336 157.445 59.1268C156.739 59.5199 155.668 60.3848 155.041 61.0924C154.414 61.7738 153.891 62.5077 153.891 62.7173C153.891 63.0055 153.447 63.1367 152.114 63.2415C151.148 63.3201 149.684 63.556 148.848 63.7657C148.038 63.9753 146.497 64.578 145.452 65.1022C144.433 65.6263 143.1 66.4388 141.48 67.7755L140.565 66.9892C140.069 66.5699 138.998 65.8885 138.214 65.4692C137.43 65.0761 136.15 64.6042 135.418 64.447C134.66 64.2897 132.622 64.1588 130.898 64.1588C129.173 64.1588 127.135 64.2897 126.378 64.447C125.646 64.6042 124.418 65.0497 123.712 65.3904C122.981 65.7573 121.936 66.4388 120.316 67.8016L119.662 67.1727C119.297 66.832 118.304 66.1244 117.442 65.6002C116.579 65.0761 114.959 64.3685 113.836 64.0277C112.738 63.6608 111.38 63.3725 110.857 63.3725C110.308 63.3725 109.498 63.32 109.08 63.2151C108.506 63.1103 108.061 62.7172 107.434 61.7737C106.99 61.0661 106.049 60.1227 105.344 59.6509C104.665 59.2054 103.489 58.6026 102.731 58.3405C102 58.0784 100.693 57.7901 99.883 57.7114C98.9162 57.6066 97.5576 57.7114 96.1466 57.9735C94.9186 58.2094 92.2273 58.8646 90.137 59.415C88.0475 59.9913 86.3235 60.4367 86.27 60.4108C86.2439 60.3846 86.688 59.4151 87.2889 58.262C87.8898 57.1088 89.0656 55.1694 89.9018 53.9376C90.7117 52.7058 92.3841 50.6615 93.5861 49.3773C94.788 48.0931 96.826 46.2586 98.1063 45.2889C99.3866 44.3192 101.451 42.9562 102.679 42.2486C103.907 41.5672 105.788 40.6237 106.859 40.152C107.931 39.7064 109.943 38.9725 111.301 38.527C112.66 38.0815 115.012 37.4788 116.527 37.1905C118.043 36.9022 120.394 36.5353 121.753 36.4043C123.111 36.2732 125.019 36.0899 127.762 35.854V23.2741L126.665 22.776C126.038 22.4877 124.993 21.6491 124.313 20.9414C123.608 20.2076 122.798 19.0545 122.484 18.3731C122.04 17.3772 121.91 16.6169 121.883 14.8872C121.883 13.0003 121.988 12.4498 122.589 11.2181C122.955 10.4319 123.765 9.27885 124.339 8.67607C124.94 8.04708 125.907 7.28704 126.508 6.97254C127.109 6.68426 127.919 6.31723 128.285 6.2124C128.651 6.10758 129.8 6.00279 130.846 6.00279Z" stroke="url(#paint2_linear_53_9)" stroke-width="12" mask="url(#path-1-outside-1_53_9)"/>
<defs>
<linearGradient id="paint0_linear_53_9" x1="130.805" y1="6" x2="130.805" y2="254.381" gradientUnits="userSpaceOnUse">
<stop stop-color="#29A2A7"/>
<stop offset="1" stop-color="#2985A7"/>
</linearGradient>
<linearGradient id="paint1_linear_53_9" x1="130.805" y1="6" x2="130.805" y2="254.381" gradientUnits="userSpaceOnUse">
<stop stop-color="#29A2A7"/>
<stop offset="1" stop-color="#2985A7"/>
</linearGradient>
<linearGradient id="paint2_linear_53_9" x1="130.805" y1="6" x2="130.805" y2="254.381" gradientUnits="userSpaceOnUse">
<stop stop-color="#29A2A7"/>
<stop offset="1" stop-color="#2985A7"/>
</linearGradient>
</defs>
</svg>
